<?xml version="1.0" standalone="no"?>
<!DOCTYPE svg PUBLIC "-//W3C//DTD SVG 20010904//EN"
 "http://www.w3.org/TR/2001/REC-SVG-20010904/DTD/svg10.dtd">
<svg version="1.0" xmlns="http://www.w3.org/2000/svg"
 width="512.000000pt" height="512.000000pt" viewBox="0 0 512.000000 512.000000"
 preserveAspectRatio="xMidYMid meet">
<metadata>
Created by potrace 1.16, written by Peter Selinger 2001-2019
</metadata>
<g transform="translate(0.000000,512.000000) scale(0.100000,-0.100000)"
fill="#000000" stroke="none">
<path d="M2327 5034 c-100 -15 -270 -58 -295 -75 -16 -10 -16 -10 0 -5 117 36
379 61 557 52 548 -25 1078 -235 1516 -601 169 -141 397 -382 440 -465 14 -27
13 -32 -5 -62 -11 -18 -20 -42 -20 -54 0 -11 27 -59 60 -105 245 -341 381
-880 341 -1352 -21 -248 -66 -458 -137 -636 -41 -101 -44 -115 -31 -129 25
-25 46 -6 83 75 182 399 234 876 144 1312 -92 442 -327 912 -624 1249 -379
430 -927 722 -1496 798 -132 17 -417 16 -533 -2z"/>
<path d="M2270 4834 c-14 -2 -59 -9 -100 -15 -290 -41 -644 -203 -886 -404
-466 -389 -778 -916 -845 -1431 -7 -52 -16 -94 -20 -94 -4 0 -6 -28 -4 -62 3
-46 2 -54 -4 -28 -6 28 -9 13 -15 -73 -8 -106 -2 -458 8 -487 3 -8 7 -35 10
-60 15 -150 109 -434 190 -578 31 -54 36 -42 7 14 -135 272 -179 480 -185 887
-4 233 -3 238 4 72 4 -99 12 -209 19 -245 6 -36 13 -85 16 -109 3 -24 10 -52
16 -63 8 -15 8 -19 0 -14 -15 9 -14 7 13 -114 37 -162 91 -314 158 -440 58
-110 98 -173 98 -154 0 5 12 -9 26 -31 15 -22 36 -50 47 -62 11 -13 17 -23 13
-23 -12 0 43 -63 71 -81 14 -9 71 -59 126 -111 190 -177 338 -306 386 -335 14
-9 51 -33 81 -53 67 -46 138 -82 165 -86 11 -1 29 -5 40 -9 11 -3 -3 7 -31 22
-77 42 -320 209 -399 274 -133 108 -278 271 -370 414 -216 335 -324 698 -342
1140 -14 380 52 714 202 1020 119 243 244 413 457 621 205 200 412 349 669
479 70 36 131 70 135 77 4 7 3 8 -4 4 -7 -4 -12 -3 -12 2 0 5 75 37 168 70 92
32 174 62 182 65 16 6 -50 6 -90 1z"/>
<path d="M2565 4763 c-194 -9 -502 -80 -557 -130 -22 -19 -24 -61 -3 -69 8 -3
63 10 122 30 59 20 162 48 228 63 108 24 140 27 325 27 131 1 227 -4 265 -12
132 -28 234 -56 229 -63 -2 -4 6 -5 18 -1 16 4 19 2 13 -8 -6 -9 -4 -11 4 -6
17 11 133 -33 124 -47 -3 -6 -1 -7 5 -3 14 8 94 -23 86 -35 -3 -5 3 -6 12 -2
12 4 15 3 10 -5 -5 -8 -1 -10 10 -5 12 4 15 3 10 -5 -5 -8 -1 -10 10 -5 12 4
15 3 10 -5 -5 -8 -1 -10 10 -5 12 4 15 3 10 -5 -5 -8 -1 -10 10 -5 13 5 15 3
9 -7 -5 -9 -4 -11 3 -6 15 9 55 -18 44 -29 -4 -5 -1 -5 7 0 9 5 20 0 33 -16
11 -13 17 -18 13 -11 -6 11 -3 12 11 4 23 -13 65 -47 45 -36 -9 5 -12 3 -7 -5
4 -6 15 -10 23 -9 9 2 17 -5 19 -16 1 -10 43 -60 93 -111 80 -81 91 -97 91
-128 0 -32 8 -42 84 -105 97 -82 85 -71 201 -197 245 -267 421 -649 470 -1019
17 -127 19 -380 5 -546 -9 -97 -49 -387 -66 -470 -8 -39 10 -5 46 83 120 299
156 733 89 1082 -67 353 -257 702 -534 982 -71 72 -150 159 -175 193 -61 83
-268 288 -355 351 -101 73 -349 192 -485 233 -191 57 -425 87 -615 79z"/>
<path d="M4476 4544 c-28 -27 -18 -50 57 -130 97 -103 191 -222 256 -322 53
-81 74 -95 99 -70 26 26 11 65 -64 173 -139 199 -285 362 -326 365 -4 0 -14
-7 -22 -16z"/>
<path d="M2545 4374 c-208 -21 -357 -65 -560 -165 -228 -113 -233 -129 -17
-53 324 113 469 144 674 144 145 0 228 -10 373 -47 94 -23 266 -82 310 -106
11 -6 22 -12 25 -12 22 -4 80 -31 80 -38 0 -4 5 -5 10 -2 6 3 10 1 10 -6 0 -7
3 -10 6 -6 4 3 12 1 19 -6 12 -13 75 -55 180 -122 127 -81 286 -246 396 -409
32 -49 59 -85 59 -79 0 6 -36 65 -81 132 -254 384 -705 685 -1129 755 -100 16
-287 27 -355 20z"/>
<path d="M2598 4203 c34 -2 90 -2 125 0 34 2 6 3 -63 3 -69 0 -97 -1 -62 -3z"/>
<path d="M2468 4193 c12 -2 30 -2 40 0 9 3 -1 5 -23 4 -22 0 -30 -2 -17 -4z"/>
<path d="M2902 4175 c60 -13 133 -31 164 -40 31 -9 58 -14 60 -12 11 10 -263
78 -309 76 -12 0 26 -11 85 -24z"/>
<path d="M2393 4183 c9 -2 25 -2 35 0 9 3 1 5 -18 5 -19 0 -27 -2 -17 -5z"/>
<path d="M2338 4173 c6 -2 18 -2 25 0 6 3 1 5 -13 5 -14 0 -19 -2 -12 -5z"/>
<path d="M2298 4163 c7 -3 16 -2 19 1 4 3 -2 6 -13 5 -11 0 -14 -3 -6 -6z"/>
<path d="M2258 4153 c7 -3 16 -2 19 1 4 3 -2 6 -13 5 -11 0 -14 -3 -6 -6z"/>
<path d="M2188 4133 c7 -3 16 -2 19 1 4 3 -2 6 -13 5 -11 0 -14 -3 -6 -6z"/>
<path d="M3150 4110 c8 -5 20 -10 25 -10 6 0 3 5 -5 10 -8 5 -19 10 -25 10 -5
0 -3 -5 5 -10z"/>
<path d="M3290 4050 c30 -16 60 -29 65 -29 6 0 -15 13 -45 29 -30 16 -59 29
-65 29 -5 0 15 -13 45 -29z"/>
<path d="M4250 4037 c0 -4 17 -34 39 -65 129 -191 279 -468 357 -658 49 -122
100 -313 121 -452 25 -169 22 -475 -5 -637 -12 -65 -19 -121 -17 -124 7 -6 12
17 30 134 50 339 19 684 -90 1005 -56 163 -195 451 -298 615 -72 114 -136 199
-137 182z"/>
<path d="M3390 4001 c24 -20 40 -26 40 -16 0 2 -15 12 -32 20 l-33 16 25 -20z"/>
<path d="M3443 3973 c11 -17 146 -107 152 -101 5 4 -26 26 -130 94 -16 10 -26
14 -22 7z"/>
<path d="M2603 3933 c26 -2 68 -2 95 0 26 2 4 3 -48 3 -52 0 -74 -1 -47 -3z"/>
<path d="M2493 3923 c9 -2 23 -2 30 0 6 3 -1 5 -18 5 -16 0 -22 -2 -12 -5z"/>
<path d="M2783 3923 c9 -2 25 -2 35 0 9 3 1 5 -18 5 -19 0 -27 -2 -17 -5z"/>
<path d="M2428 3913 c6 -2 18 -2 25 0 6 3 1 5 -13 5 -14 0 -19 -2 -12 -5z"/>
<path d="M2915 3900 c100 -23 200 -60 290 -109 255 -138 415 -291 541 -520 59
-106 72 -116 23 -18 -121 242 -321 434 -584 563 -103 50 -278 105 -329 103
-11 0 15 -9 59 -19z"/>
<path d="M2378 3903 c7 -3 16 -2 19 1 4 3 -2 6 -13 5 -11 0 -14 -3 -6 -6z"/>
<path d="M4786 3871 c-7 -11 3 -41 14 -41 13 0 32 29 25 40 -8 12 -32 13 -39
1z"/>
<path d="M3620 3856 c0 -2 8 -10 18 -17 15 -13 16 -12 3 4 -13 16 -21 21 -21
13z"/>
<path d="M3780 3705 c63 -66 119 -122 125 -124 14 -6 -108 122 -180 189 -33
30 -8 1 55 -65z"/>
<path d="M1259 3753 c-13 -16 -12 -17 4 -4 9 7 17 15 17 17 0 8 -8 3 -21 -13z"/>
<path d="M1142 3598 c-36 -54 -44 -68 -39 -68 2 0 21 25 41 55 20 30 34 55 32
55 -3 0 -18 -19 -34 -42z"/>
<path d="M3921 3555 c36 -45 154 -243 184 -310 51 -110 101 -270 116 -365 7
-47 15 -77 17 -68 12 56 -60 310 -128 456 -43 91 -156 269 -187 293 -17 13
-17 12 -2 -6z"/>
<path d="M1016 3368 c-45 -96 -127 -327 -125 -355 0 -4 22 54 49 130 26 75 68
182 93 237 25 55 43 100 40 100 -2 0 -28 -51 -57 -112z"/>
<path d="M1132 3428 c-74 -130 -206 -455 -243 -598 -69 -269 -44 -578 66 -805
8 -16 30 -64 49 -105 69 -148 198 -352 304 -480 103 -124 290 -298 370 -345 9
-5 37 -24 62 -41 25 -16 83 -52 130 -79 47 -27 88 -53 91 -58 4 -5 9 -3 11 4
4 11 9 11 24 -2 23 -20 156 -61 273 -84 91 -18 350 -24 451 -10 52 7 149 30
250 59 66 20 205 79 285 121 96 52 107 66 16 20 -383 -191 -861 -216 -1224
-65 -223 92 -434 249 -630 468 -127 142 -191 228 -271 362 -162 272 -224 462
-233 720 -6 175 5 287 43 428 30 114 128 371 178 470 42 84 41 96 -2 20z"/>
<path d="M4360 3257 c0 -13 53 -148 56 -144 3 2 -7 35 -22 73 -24 65 -34 85
-34 71z"/>
<path d="M1486 3165 c-9 -26 -7 -32 5 -12 6 10 9 21 6 23 -2 3 -7 -2 -11 -11z"/>
<path d="M3806 3150 c4 -14 13 -38 20 -55 11 -24 13 -25 8 -5 -4 14 -13 39
-20 55 -11 24 -13 25 -8 5z"/>
<path d="M1466 3115 c-9 -26 -7 -32 5 -12 6 10 9 21 6 23 -2 3 -7 -2 -11 -11z"/>
<path d="M1422 3007 c-17 -40 -46 -117 -63 -172 -26 -87 -31 -120 -36 -250 -7
-207 22 -344 92 -430 l16 -20 -5 20 c-53 212 -66 294 -66 423 1 139 29 293 80
440 11 31 19 57 17 58 -1 2 -17 -30 -35 -69z"/>
<path d="M4442 3025 c-1 -11 8 -45 18 -75 13 -37 17 -44 13 -20 -8 50 -31 118
-31 95z"/>
<path d="M241 3014 c0 -11 3 -14 6 -6 3 7 2 16 -1 19 -3 4 -6 -2 -5 -13z"/>
<path d="M232 2965 c0 -16 2 -22 5 -12 2 9 2 23 0 30 -3 6 -5 -1 -5 -18z"/>
<path d="M871 2954 c0 -11 3 -14 6 -6 3 7 2 16 -1 19 -3 4 -6 -2 -5 -13z"/>
<path d="M861 2914 c0 -11 3 -14 6 -6 3 7 2 16 -1 19 -3 4 -6 -2 -5 -13z"/>
<path d="M3881 2904 c0 -11 3 -14 6 -6 3 7 2 16 -1 19 -3 4 -6 -2 -5 -13z"/>
<path d="M221 2894 c0 -11 3 -14 6 -6 3 7 2 16 -1 19 -3 4 -6 -2 -5 -13z"/>
<path d="M4482 2870 c0 -14 2 -19 5 -12 2 6 2 18 0 25 -3 6 -5 1 -5 -13z"/>
<path d="M3891 2854 c0 -11 3 -14 6 -6 3 7 2 16 -1 19 -3 4 -6 -2 -5 -13z"/>
<path d="M4492 2820 c0 -14 4 -38 8 -55 7 -27 8 -27 8 -5 0 14 -4 39 -8 55 -7
27 -8 27 -8 5z"/>
<path d="M212 2810 c0 -14 2 -19 5 -12 2 6 2 18 0 25 -3 6 -5 1 -5 -13z"/>
<path d="M841 2814 c0 -11 3 -14 6 -6 3 7 2 16 -1 19 -3 4 -6 -2 -5 -13z"/>
<path d="M3902 2790 c0 -14 2 -19 5 -12 2 6 2 18 0 25 -3 6 -5 1 -5 -13z"/>
<path d="M832 2770 c0 -14 2 -19 5 -12 2 6 2 18 0 25 -3 6 -5 1 -5 -13z"/>
<path d="M4243 2755 c0 -22 2 -30 4 -17 2 12 2 30 0 40 -3 9 -5 -1 -4 -23z"/>
<path d="M203 2710 c0 -30 2 -43 4 -27 2 15 2 39 0 55 -2 15 -4 2 -4 -28z"/>
<path d="M823 2705 c0 -22 2 -30 4 -17 2 12 2 30 0 40 -3 9 -5 -1 -4 -23z"/>
<path d="M3912 2705 c0 -16 2 -22 5 -12 2 9 2 23 0 30 -3 6 -5 -1 -5 -18z"/>
<path d="M4513 2695 c0 -22 2 -30 4 -17 2 12 2 30 0 40 -3 9 -5 -1 -4 -23z"/>
<path d="M4253 2590 c0 -41 2 -58 4 -37 2 20 2 54 0 75 -2 20 -4 3 -4 -38z"/>
<path d="M195 2475 c1 -82 6 -166 10 -185 3 -19 13 -71 21 -115 16 -89 43
-189 49 -183 2 2 -2 28 -10 58 -25 100 -46 243 -60 410 l-14 165 4 -150z"/>
<path d="M813 2565 c0 -33 2 -45 4 -27 2 18 2 45 0 60 -2 15 -4 0 -4 -33z"/>
<path d="M4523 2585 c0 -22 2 -30 4 -17 2 12 2 30 0 40 -3 9 -5 -1 -4 -23z"/>
<path d="M4243 2430 c0 -25 2 -35 4 -22 2 12 2 32 0 45 -2 12 -4 2 -4 -23z"/>
<path d="M811 2350 c-1 -76 6 -131 39 -320 21 -119 80 -290 122 -352 10 -14
18 -29 18 -33 0 -10 107 -179 148 -235 99 -132 287 -322 391 -392 25 -18 48
-34 51 -37 12 -14 87 -61 97 -61 6 0 13 -3 15 -7 12 -28 300 -148 413 -172 28
-6 70 -15 95 -20 84 -18 253 -32 319 -27 36 3 108 8 160 12 51 3 105 10 120
15 15 5 0 5 -39 1 -36 -3 -128 -6 -205 -6 -284 2 -570 83 -817 232 -256 155
-429 326 -618 609 -194 291 -279 515 -300 783 l-7 95 -2 -85z"/>
<path d="M4232 2345 c0 -16 2 -22 5 -12 2 9 2 23 0 30 -3 6 -5 -1 -5 -18z"/>
<path d="M3901 2344 c0 -11 3 -14 6 -6 3 7 2 16 -1 19 -3 4 -6 -2 -5 -13z"/>
<path d="M4521 2264 c0 -11 3 -14 6 -6 3 7 2 16 -1 19 -3 4 -6 -2 -5 -13z"/>
<path d="M4730 2070 c0 -10 -11 -54 -25 -97 -13 -42 -22 -79 -20 -81 3 -3 27
67 61 181 3 9 1 17 -5 17 -6 0 -11 -9 -11 -20z"/>
<path d="M1401 2024 c-2 -31 39 -133 98 -248 58 -115 77 -141 166 -234 201
-211 411 -306 723 -327 64 -4 102 -3 102 3 0 5 -22 12 -49 16 -77 10 -240 55
-319 88 -98 41 -234 131 -324 215 -40 38 -95 86 -123 108 -108 85 -141 126
-208 260 -36 72 -66 125 -66 119z"/>
<path d="M282 1949 c6 -16 12 -28 14 -26 5 5 -13 57 -20 57 -3 0 0 -14 6 -31z"/>
<path d="M4576 1715 c-9 -26 -7 -32 5 -12 6 10 9 21 6 23 -2 3 -7 -2 -11 -11z"/>
<path d="M3569 1643 l-24 -28 28 24 c15 14 27 26 27 28 0 8 -8 1 -31 -24z"/>
<path d="M4582 1515 c-64 -107 -178 -275 -230 -340 -122 -150 -327 -346 -454
-433 -37 -26 -50 -42 -64 -84 -9 -29 -19 -59 -22 -65 -9 -27 36 -11 113 38
276 177 519 432 695 729 87 148 88 153 51 179 -43 31 -59 26 -89 -24z"/>
<path d="M642 1543 c5 -9 36 -77 49 -108 15 -33 32 -58 72 -102 20 -24 37 -47
37 -52 0 -5 20 -30 44 -56 24 -25 46 -51 49 -58 3 -7 34 -37 68 -67 l64 -53
-62 62 c-33 33 -59 61 -57 61 3 0 -20 29 -49 63 -64 76 -120 157 -171 250 -21
37 -40 67 -43 67 -2 0 -3 -3 -1 -7z"/>
<path d="M4760 1460 c-36 -36 -21 -90 25 -90 48 0 76 78 36 100 -28 14 -38 13
-61 -10z"/>
<path d="M510 1442 c-22 -18 -22 -19 -5 -53 63 -121 215 -318 353 -455 397
-395 893 -636 1409 -685 185 -17 443 5 621 54 l82 22 -242 0 c-261 1 -377 14
-598 71 -395 103 -774 302 -1061 560 -84 76 -114 93 -131 76 -8 -8 -5 -21 11
-49 17 -29 3 -18 -59 47 -89 92 -194 223 -271 337 -59 87 -78 100 -109 75z"/>
<path d="M1470 1457 c0 -2 15 -16 33 -33 l32 -29 -29 33 c-28 30 -36 37 -36
29z"/>
<path d="M3929 1363 l-24 -28 28 24 c15 14 27 26 27 28 0 8 -8 1 -31 -24z"/>
<path d="M4160 1292 c-72 -99 -263 -292 -368 -371 -236 -178 -506 -305 -810
-382 -200 -50 -331 -69 -480 -69 -170 0 -344 -38 -245 -54 187 -30 450 -34
625 -11 281 37 583 144 768 272 74 51 351 340 421 439 61 85 154 242 148 248
-2 2 -29 -31 -59 -72z"/>
<path d="M1580 1346 c0 -2 8 -10 18 -17 15 -13 16 -12 3 4 -13 16 -21 21 -21
13z"/>
<path d="M3815 1238 l-70 -73 73 70 c67 64 77 75 69 75 -1 0 -34 -33 -72 -72z"/>
<path d="M2528 1213 c12 -2 32 -2 45 0 12 2 2 4 -23 4 -25 0 -35 -2 -22 -4z"/>
<path d="M2778 1133 c7 -3 16 -2 19 1 4 3 -2 6 -13 5 -11 0 -14 -3 -6 -6z"/>
<path d="M3684 1118 l-19 -23 23 19 c21 18 27 26 19 26 -2 0 -12 -10 -23 -22z"/>
<path d="M2648 1123 c12 -2 32 -2 45 0 12 2 2 4 -23 4 -25 0 -35 -2 -22 -4z"/>
<path d="M3830 818 c-36 -34 -47 -47 -25 -31 38 30 104 94 94 93 -2 -1 -33
-28 -69 -62z"/>
<path d="M757 803 c-4 -3 -7 -16 -7 -27 0 -17 -2 -18 -11 -6 -7 12 -9 8 -7
-15 3 -27 6 -30 36 -28 54 2 81 40 50 71 -13 13 -50 16 -61 5z"/>
<path d="M2968 753 c7 -3 16 -2 19 1 4 3 -2 6 -13 5 -11 0 -14 -3 -6 -6z"/>
<path d="M3739 743 c-13 -16 -12 -17 4 -4 16 13 21 21 13 21 -2 0 -10 -8 -17
-17z"/>
<path d="M2908 743 c6 -2 18 -2 25 0 6 3 1 5 -13 5 -14 0 -19 -2 -12 -5z"/>
<path d="M2848 733 c6 -2 18 -2 25 0 6 3 1 5 -13 5 -14 0 -19 -2 -12 -5z"/>
<path d="M1760 624 c19 -9 44 -20 55 -25 34 -16 85 -28 85 -21 0 9 -140 62
-160 62 -8 0 1 -8 20 -16z"/>
</g>
</svg>